<?xml version="1.0" encoding="UTF-8" standalone="no"?>
<svg xmlns:sketch="http://www.bohemiancoding.com/sketch/ns" height="20px" version="1.1"
    viewBox="0 0 20 20" width="20px" xmlns="http://www.w3.org/2000/svg">
    <!-- Generator: Sketch 3.0.3 (7891) - http://www.bohemiancoding.com/sketch -->
    <title>gamepad</title>
    <desc>Created with Sketch.</desc>
    <defs></defs>
    <g fill="none" fill-rule="evenodd" id="Page-1" stroke="none" stroke-width="1"
        sketch:type="MSPage">
        <g fill="#000000" id="Icons-Hardware" transform="translate(-170.000000, -1.000000)"
            sketch:type="MSLayerGroup">
            <g id="gamepad" transform="translate(170.000000, 1.000000)" sketch:type="MSShapeGroup">
                <path
                    d="M13,5.5 L13,0 L7,0 L7,5.5 L10,8.5 L13,5.5 L13,5.5 Z M5.5,7 L0,7 L0,13 L5.5,13 L8.5,10 L5.5,7 L5.5,7 Z M7,14.5 L7,20 L13,20 L13,14.5 L10,11.5 L7,14.5 L7,14.5 Z M14.5,7 L11.5,10 L14.5,13 L20,13 L20,7 L14.5,7 L14.5,7 Z"
                    id="Shape"></path>
            </g>
        </g>
    </g>
</svg>